<svg xmlns="http://www.w3.org/2000/svg" version="1.1" xmlns:xlink="http://www.w3.org/1999/xlink" xmlns:svgjs="http://svgjs.dev/svgjs" width="1000" height="1000"><g clip-path="url(#SvgjsClipPath1334)"><rect width="1000" height="1000" fill="#ffffff"></rect><g transform="matrix(4.285714285714286,0,0,4.285714285714286,50,50)"><svg xmlns="http://www.w3.org/2000/svg" version="1.1" xmlns:xlink="http://www.w3.org/1999/xlink" xmlns:svgjs="http://svgjs.dev/svgjs" width="210" height="210"><svg width="210" height="210" viewBox="0 0 210 210" fill="none" xmlns="http://www.w3.org/2000/svg">
<path d="M73.3813 100.146C70.7617 96.9899 68.1976 93.881 65.6227 90.781C64.1406 88.9968 62.6391 87.2287 61.1509 85.4495C60.7154 84.9288 60.6656 84.5426 61.2001 83.9142C62.7954 82.039 64.6604 80.4243 66.2366 78.5394C66.6774 78.0123 67.1208 77.9815 67.7358 78.2287C80.0115 83.1624 92.2899 88.0893 104.576 92.9959C111.063 95.5864 117.571 98.1244 124.055 100.723C124.626 100.952 125.085 100.878 125.599 100.707C139.071 96.2095 152.544 91.7126 166.016 87.2161C168.827 86.2781 171.608 85.2338 174.457 84.4363C177.043 83.7128 179.697 83.4492 182.422 83.7008C184.507 83.8933 186.562 84.0932 188.541 84.797C191.947 86.008 192.92 88.4915 191.305 91.7426C190.065 94.2403 188.07 96.0728 186.029 97.8753C182.791 100.735 178.837 102.09 174.815 103.395C165.18 106.522 155.588 109.786 145.968 112.962C138.79 115.332 131.593 117.646 124.409 119.998C120.52 121.271 116.642 122.58 112.755 123.859C105.489 126.249 98.2212 128.634 90.951 131.011C85.0496 132.94 79.1449 134.859 73.2365 136.767C72.6367 136.961 72.0045 137.14 71.3817 137.161C68.1472 137.272 64.9076 137.227 61.6866 136.945C58.1166 136.633 54.5511 136.253 50.9943 135.787C46.8047 135.238 42.6275 134.633 38.5012 133.718C37.3562 133.464 36.204 133.204 35.1328 132.7C34.8708 132.577 34.543 132.47 34.5801 132.07C34.6159 131.684 34.9212 131.634 35.2163 131.532C39.8277 129.943 44.4375 128.35 49.0445 126.748C56.253 124.242 63.4576 121.724 70.6668 119.22C74.9555 117.73 79.25 116.257 83.5407 114.772C83.98 114.62 84.4568 114.553 84.9941 114.112C81.1341 109.467 77.2831 104.832 73.3813 100.146Z" fill="#065A82"></path>
<path d="M51.1565 122.959C49.8574 123.853 48.3405 124.173 46.8993 124.687C42.6945 126.186 38.4805 127.661 34.2869 129.191C33.4488 129.497 33.0083 129.318 32.4447 128.616C30.7015 126.446 28.8364 124.375 27.0295 122.256C25.1152 120.012 23.2194 117.751 21.301 115.511C20.9216 115.068 20.8444 114.627 21.3386 114.306C22.7406 113.397 23.6702 111.984 24.9824 110.974C25.5645 110.526 25.9979 110.504 26.6147 110.81C30.0505 112.515 33.4984 114.196 36.947 115.875C41.3929 118.039 45.8445 120.192 50.2899 122.357C50.5874 122.502 50.8539 122.711 51.1565 122.959Z" fill="#065A82"></path>
<path d="M205 105C205 160.228 160.228 205 105 205C49.7715 205 5 160.228 5 105C5 49.7715 49.7715 5 105 5C160.228 5 205 49.7715 205 105Z" stroke="#21295C" stroke-width="10"></path>
</svg></svg></g></g><defs><clipPath id="SvgjsClipPath1334"><rect width="1000" height="1000" x="0" y="0" rx="500" ry="500"></rect></clipPath></defs></svg>